<?xml version="1.0" standalone="no"?>
<!DOCTYPE svg PUBLIC "-//W3C//DTD SVG 20010904//EN"
 "http://www.w3.org/TR/2001/REC-SVG-20010904/DTD/svg10.dtd">
<svg version="1.0" xmlns="http://www.w3.org/2000/svg"
 width="72.000000pt" height="120.000000pt" viewBox="0 0 72.000000 120.000000"
 preserveAspectRatio="xMidYMid meet">

<g transform="translate(0.000000,120.000000) scale(0.100000,-0.100000)"
fill="#000000" stroke="none">
<path d="M320 1159 c-8 -14 -8 -29 -2 -49 9 -25 7 -30 -26 -51 -68 -45 -132
-167 -155 -294 -14 -84 -3 -132 40 -171 l36 -33 -77 -163 c-81 -174 -91 -214
-54 -223 13 -3 147 -4 298 -3 l275 3 3 35 c2 26 -17 75 -72 194 l-75 160 36
31 c34 29 37 36 41 98 8 120 -56 278 -142 354 -38 33 -43 42 -38 71 2 18 -1
39 -8 47 -19 22 -67 19 -80 -6z m68 -221 c3 -35 6 -38 33 -38 26 0 30 -3 27
-22 -2 -17 -11 -24 -30 -26 -28 -3 -28 -4 -28 -76 0 -55 -4 -77 -16 -87 -28
-23 -46 15 -42 93 l3 67 -30 3 c-41 4 -43 41 -2 46 21 3 27 9 27 27 0 39 11
56 34 53 16 -2 22 -11 24 -40z"/>
<path d="M38 89 c-25 -14 -24 -65 1 -79 12 -6 135 -10 330 -10 309 0 310 0
325 22 20 29 20 34 -4 58 -19 19 -33 20 -327 20 -191 0 -315 -4 -325 -11z"/>
</g>
</svg>
