<?xml version="1.0" standalone="no"?>
<!DOCTYPE svg PUBLIC "-//W3C//DTD SVG 20010904//EN"
 "http://www.w3.org/TR/2001/REC-SVG-20010904/DTD/svg10.dtd">
<svg version="1.0" xmlns="http://www.w3.org/2000/svg"
 width="126.000000pt" height="122.000000pt" viewBox="0 0 126.000000 122.000000"
 preserveAspectRatio="xMidYMid meet">

<g transform="translate(0.000000,122.000000) scale(0.100000,-0.100000)"
fill="#000000" stroke="none">
<path d="M584 1171 c-77 -33 -86 -158 -14 -199 16 -9 30 -22 30 -28 0 -23 -97
-249 -107 -249 -6 0 -74 57 -151 127 l-140 128 1 45 c2 57 -26 89 -78 89 -47
0 -79 -32 -79 -79 0 -41 20 -65 67 -81 32 -11 33 -12 125 -305 66 -210 91
-303 87 -324 -3 -16 -8 -42 -12 -58 -11 -56 -8 -57 316 -57 163 0 301 4 307 8
19 13 22 36 7 73 -15 37 -12 46 162 613 9 31 19 42 45 51 47 16 73 52 66 90
-9 43 -39 69 -80 69 -58 0 -93 -46 -77 -102 9 -28 4 -34 -112 -138 -66 -60
-134 -121 -152 -136 l-32 -27 -54 135 c-50 129 -52 136 -34 147 70 39 88 121
38 177 -30 34 -89 48 -129 31z"/>
<path d="M302 88 c-14 -14 -16 -64 -3 -73 13 -7 649 -8 661 0 14 9 12 59 -2
73 -17 17 -639 17 -656 0z"/>
</g>
</svg>
