<?xml version="1.0" standalone="no"?>
<!DOCTYPE svg PUBLIC "-//W3C//DTD SVG 20010904//EN"
 "http://www.w3.org/TR/2001/REC-SVG-20010904/DTD/svg10.dtd">
<svg version="1.0" xmlns="http://www.w3.org/2000/svg"
 width="83.000000pt" height="123.000000pt" viewBox="0 0 83.000000 123.000000"
 preserveAspectRatio="xMidYMid meet">

<g transform="translate(0.000000,123.000000) scale(0.100000,-0.100000)"
fill="#000000" stroke="none">
<path d="M421 1177 c-20 -47 -48 -73 -133 -125 -59 -37 -90 -75 -119 -151 -28
-75 -25 -168 12 -325 36 -153 32 -193 -26 -286 -19 -30 -35 -60 -35 -67 0 -28
43 -33 297 -33 222 0 262 2 282 16 30 22 24 52 -41 209 -66 157 -103 230 -145
284 -18 25 -30 48 -26 51 15 13 76 30 107 30 18 0 50 -13 76 -31 34 -23 52
-29 75 -25 61 12 94 84 61 132 -8 11 -39 40 -69 63 -30 23 -67 59 -82 80 -27
40 -48 52 -121 71 -54 13 -64 27 -71 94 -3 31 -10 56 -15 56 -5 0 -17 -19 -27
-43z m-51 -164 c0 -10 -20 -31 -45 -48 -93 -62 -104 -130 -55 -348 44 -195 39
-279 -21 -349 -21 -25 -30 -30 -39 -21 -10 9 -6 24 16 69 38 78 37 150 -6 314
-52 201 -34 293 72 370 46 34 78 39 78 13z m214 -24 c25 -20 35 -49 17 -49
-14 0 -74 44 -79 58 -6 19 33 14 62 -9z"/>
<path d="M88 109 c-25 -14 -24 -65 1 -79 12 -6 135 -10 329 -10 287 0 310 1
325 18 22 24 21 45 -1 65 -16 15 -54 17 -328 17 -191 0 -316 -4 -326 -11z"/>
</g>
</svg>
