<?xml version="1.0" standalone="no"?>
<!DOCTYPE svg PUBLIC "-//W3C//DTD SVG 20010904//EN"
 "http://www.w3.org/TR/2001/REC-SVG-20010904/DTD/svg10.dtd">
<svg version="1.0" xmlns="http://www.w3.org/2000/svg"
 width="79.000000pt" height="122.000000pt" viewBox="0 0 79.000000 122.000000"
 preserveAspectRatio="xMidYMid meet">

<g transform="translate(0.000000,122.000000) scale(0.100000,-0.100000)"
fill="#000000" stroke="none">
<path d="M305 1151 c-101 -47 -146 -151 -114 -266 11 -37 63 -100 101 -121 16
-9 6 -35 -92 -259 -61 -137 -110 -262 -110 -277 0 -17 7 -31 19 -38 26 -14
546 -14 572 0 11 6 19 21 19 36 0 14 -50 139 -110 277 -100 227 -109 252 -93
261 36 19 92 87 102 123 31 111 -12 213 -111 264 -48 24 -130 25 -183 0z"/>
<path d="M66 94 c-20 -20 -20 -48 0 -68 13 -14 57 -16 328 -16 290 0 314 1
329 18 22 24 21 45 -1 65 -16 15 -54 17 -330 17 -269 0 -313 -2 -326 -16z"/>
</g>
</svg>
