<?xml version="1.0" standalone="no"?>
<!DOCTYPE svg PUBLIC "-//W3C//DTD SVG 20010904//EN"
 "http://www.w3.org/TR/2001/REC-SVG-20010904/DTD/svg10.dtd">
<svg version="1.0" xmlns="http://www.w3.org/2000/svg"
 width="113.000000pt" height="122.000000pt" viewBox="0 0 113.000000 122.000000"
 preserveAspectRatio="xMidYMid meet">

<g transform="translate(0.000000,122.000000) scale(0.100000,-0.100000)"
fill="#000000" stroke="none">
<path d="M550 1180 c-6 -12 -10 -31 -8 -43 4 -36 -10 -47 -63 -47 -37 0 -51
-4 -56 -16 -9 -25 24 -44 74 -44 l43 0 0 -65 0 -65 33 0 32 0 0 62 0 63 52 3
c54 3 80 21 69 47 -4 11 -20 15 -54 15 -58 0 -69 10 -74 65 -3 46 -30 59 -48
25z"/>
<path d="M279 929 c-93 -14 -179 -82 -219 -172 -53 -119 -8 -293 101 -391 58
-53 95 -66 189 -66 l81 0 -37 37 c-20 20 -48 61 -63 92 -22 48 -26 69 -26 151
0 82 4 103 26 151 30 63 87 125 132 144 l31 13 -31 16 c-42 21 -128 33 -184
25z"/>
<path d="M769 929 c-25 -4 -61 -15 -79 -24 l-34 -17 31 -13 c45 -19 102 -81
132 -144 22 -48 26 -69 26 -151 0 -82 -4 -103 -26 -151 -15 -31 -43 -72 -63
-92 l-37 -37 79 0 c64 0 87 5 130 26 62 31 115 88 151 164 22 47 26 68 26 150
0 111 -16 152 -86 214 -71 65 -154 90 -250 75z"/>
<path d="M518 848 c-52 -14 -113 -70 -144 -135 -67 -136 -15 -321 107 -383 60
-31 144 -27 201 9 82 52 120 131 120 249 0 58 -5 83 -26 127 -33 66 -92 119
-151 134 -50 13 -57 13 -107 -1z"/>
<path d="M266 218 c-20 -28 -20 -33 0 -52 13 -14 55 -16 309 -16 254 0 296 2
309 16 20 19 20 24 0 52 -15 22 -17 22 -309 22 -292 0 -294 0 -309 -22z"/>
<path d="M246 94 c-9 -8 -16 -24 -16 -34 0 -10 7 -26 16 -34 13 -14 57 -16
328 -16 290 0 314 1 329 18 22 24 21 45 -1 65 -16 15 -54 17 -330 17 -269 0
-313 -2 -326 -16z"/>
</g>
</svg>
