<?xml version="1.0" standalone="no"?>
<!DOCTYPE svg PUBLIC "-//W3C//DTD SVG 20010904//EN"
 "http://www.w3.org/TR/2001/REC-SVG-20010904/DTD/svg10.dtd">
<svg version="1.0" xmlns="http://www.w3.org/2000/svg"
 width="78.000000pt" height="123.000000pt" viewBox="0 0 78.000000 123.000000"
 preserveAspectRatio="xMidYMid meet">

<g transform="translate(0.000000,123.000000) scale(0.100000,-0.100000)"
fill="#000000" stroke="none">
<path d="M52 1158 c-17 -17 -17 -239 0 -256 7 -7 22 -12 34 -12 42 0 54 -11
54 -49 0 -20 -12 -168 -27 -330 l-27 -294 23 -18 c21 -17 45 -19 291 -19 231
0 271 2 284 16 19 18 19 18 6 149 -32 326 -50 528 -46 532 2 2 21 7 42 10 62
9 64 14 64 135 0 134 -6 148 -64 148 -24 0 -48 -6 -54 -13 -6 -7 -12 -49 -14
-92 l-3 -80 -40 0 -40 0 -3 80 c-2 61 -7 83 -19 93 -11 8 -53 12 -118 12 -65
0 -107 -4 -118 -12 -12 -10 -17 -32 -19 -93 l-3 -80 -40 0 -40 0 -5 83 c-4 59
-9 86 -20 92 -21 14 -84 12 -98 -2z"/>
<path d="M62 98 c-16 -16 -15 -53 2 -67 10 -8 107 -12 332 -12 290 0 320 2
331 18 17 22 16 38 -3 57 -13 14 -58 16 -333 16 -233 0 -320 -3 -329 -12z"/>
</g>
</svg>
